<svg width="38" height="38" viewBox="0 0 38 38" fill="none" xmlns="http://www.w3.org/2000/svg">
<path fill-rule="evenodd" clip-rule="evenodd" d="M18.9558 0C8.53533 0 0.0878906 8.44744 0.0878906 18.8679C0.0878906 29.2883 8.53533 37.7358 18.9558 37.7358C29.3762 37.7358 37.8237 29.2883 37.8237 18.8679C37.8237 8.44744 29.3762 0 18.9558 0ZM14.8072 8.86584C15.8805 8.817 16.2235 8.80505 18.9565 8.80505H18.9533C21.6871 8.80505 22.0288 8.817 23.1022 8.86584C24.1735 8.9149 24.9051 9.0845 25.5467 9.33335C26.2091 9.59017 26.7689 9.93399 27.3286 10.4937C27.8884 11.0531 28.2322 11.6145 28.4901 12.2764C28.7375 12.9162 28.9073 13.6474 28.9576 14.7187C29.0058 15.7921 29.0184 16.1351 29.0184 18.868C29.0184 21.601 29.0058 21.9431 28.9576 23.0165C28.9073 24.0874 28.7375 24.8188 28.4901 25.4589C28.2322 26.1205 27.8884 26.6819 27.3286 27.2413C26.7695 27.801 26.2089 28.1457 25.5473 28.4027C24.907 28.6515 24.1749 28.8211 23.1037 28.8702C22.0303 28.9191 21.6883 28.931 18.9552 28.931C16.2225 28.931 15.8797 28.9191 14.8063 28.8702C13.7352 28.8211 13.0038 28.6515 12.3635 28.4027C11.7021 28.1457 11.1407 27.801 10.5815 27.2413C10.022 26.6819 9.67818 26.1205 9.42094 25.4586C9.1723 24.8188 9.0027 24.0876 8.95343 23.0163C8.9048 21.9429 8.89264 21.601 8.89264 18.868C8.89264 16.1351 8.90522 15.7919 8.95322 14.7185C9.00144 13.6476 9.17126 12.9162 9.42073 12.2761C9.6786 11.6145 10.0224 11.0531 10.5822 10.4937C11.1415 9.9342 11.7029 9.59038 12.3648 9.33335C13.0046 9.0845 13.7359 8.9149 14.8072 8.86584Z" fill="white"/>
<path fill-rule="evenodd" clip-rule="evenodd" d="M18.0539 10.6181C18.2292 10.6178 18.4178 10.6179 18.6212 10.618L18.9566 10.6181C21.6435 10.6181 21.9619 10.6278 23.0229 10.676C24.0041 10.7208 24.5366 10.8848 24.8913 11.0225C25.3609 11.2049 25.6957 11.4229 26.0477 11.7751C26.3999 12.1274 26.6179 12.4628 26.8007 12.9324C26.9385 13.2867 27.1026 13.8192 27.1473 14.8003C27.1955 15.8611 27.206 16.1798 27.206 18.8654C27.206 21.5509 27.1955 21.8696 27.1473 22.9304C27.1024 23.9115 26.9385 24.444 26.8007 24.7983C26.6183 25.2679 26.3999 25.6023 26.0477 25.9543C25.6955 26.3065 25.3611 26.5245 24.8913 26.7069C24.537 26.8453 24.0041 27.0088 23.0229 27.0537C21.9621 27.1019 21.6435 27.1124 18.9566 27.1124C16.2696 27.1124 15.9512 27.1019 14.8904 27.0537C13.9092 27.0084 13.3767 26.8445 13.0218 26.7067C12.5522 26.5243 12.2167 26.3063 11.8645 25.9541C11.5123 25.6019 11.2943 25.2673 11.1115 24.7975C10.9738 24.4432 10.8096 23.9107 10.765 22.9295C10.7167 21.8687 10.7071 21.5501 10.7071 18.8628C10.7071 16.1756 10.7167 15.8586 10.765 14.7978C10.8098 13.8167 10.9738 13.2842 11.1115 12.9295C11.2939 12.4599 11.5123 12.1244 11.8645 11.7722C12.2167 11.42 12.5522 11.202 13.0218 11.0192C13.3765 10.8808 13.9092 10.7173 14.8904 10.6722C15.8187 10.6303 16.1784 10.6177 18.0539 10.6156V10.6181ZM24.3278 12.2893C23.6611 12.2893 23.1202 12.8295 23.1202 13.4964C23.1202 14.1631 23.6611 14.7039 24.3278 14.7039C24.9945 14.7039 25.5353 14.1631 25.5353 13.4964C25.5353 12.8297 24.9945 12.2888 24.3278 12.2888V12.2893ZM13.7891 18.8681C13.7891 16.0143 16.1028 13.7004 18.9566 13.7003C21.8105 13.7003 24.1238 16.0142 24.1238 18.8681C24.1238 21.722 21.8107 24.0348 18.9568 24.0348C16.1029 24.0348 13.7891 21.722 13.7891 18.8681Z" fill="white"/>
<path fill-rule="evenodd" clip-rule="evenodd" d="M18.9568 15.5139C20.8092 15.5139 22.3111 17.0156 22.3111 18.8682C22.3111 20.7207 20.8092 22.2226 18.9568 22.2226C17.1042 22.2226 15.6025 20.7207 15.6025 18.8682C15.6025 17.0156 17.1042 15.5139 18.9568 15.5139V15.5139Z" fill="white"/>
</svg>
