<svg width="38" height="38" viewBox="0 0 38 38" fill="none" xmlns="http://www.w3.org/2000/svg">
<path fill-rule="evenodd" clip-rule="evenodd" d="M19.132 0C8.7116 0 0.26416 8.44744 0.26416 18.8679C0.26416 29.2883 8.7116 37.7358 19.132 37.7358C29.5525 37.7358 37.9999 29.2883 37.9999 18.8679C37.9999 8.44744 29.5525 0 19.132 0ZM9.32141 15.6269H13.5973V28.4741H9.32141V15.6269ZM13.8791 11.653C13.8514 10.3934 12.9506 9.43394 11.4878 9.43394C10.0251 9.43394 9.06879 10.3934 9.06879 11.653C9.06879 12.8866 9.99682 13.8737 11.4323 13.8737H11.4597C12.9506 13.8737 13.8791 12.8866 13.8791 11.653ZM24.0954 15.3258C26.9091 15.3258 29.0185 17.1624 29.0185 21.1085L29.0183 28.4747H24.7426V21.6014C24.7426 19.875 24.1239 18.6969 22.576 18.6969C21.3947 18.6969 20.6911 19.4911 20.382 20.2582C20.269 20.5331 20.2412 20.9161 20.2412 21.3001V28.475H15.9648C15.9648 28.475 16.0212 16.8333 15.9648 15.6278H20.2412V17.4475C20.8087 16.5728 21.8251 15.3258 24.0954 15.3258Z" fill="white"/>
</svg>
