<svg width="28" height="28" viewBox="0 0 28 28" fill="none" xmlns="http://www.w3.org/2000/svg">
<path d="M27.6207 25.5774L22.3952 20.406C26.361 15.4676 25.9877 8.19967 21.4621 3.68053C19.0826 1.30449 15.9566 0 12.5973 0C9.23801 0 6.06536 1.30449 3.68587 3.68053C1.30639 6.05657 0 9.17804 0 12.579C0 15.98 1.30639 19.1015 3.68587 21.4775C6.06536 23.807 9.19136 25.1581 12.5973 25.1581C15.4433 25.1581 18.2427 24.1797 20.4356 22.4093L25.6145 27.5807C25.8944 27.8602 26.221 28 26.5943 28C26.9675 28 27.3408 27.8602 27.5741 27.5807C28.1339 27.0216 28.1339 26.1364 27.6207 25.5774ZM22.3952 12.579C22.3952 15.188 21.3687 17.6572 19.5025 19.4742C17.6362 21.2912 15.2101 22.3627 12.5973 22.3627C9.98452 22.3627 7.51172 21.3378 5.69211 19.4742C3.8725 17.6106 2.7994 15.188 2.7994 12.579C2.7994 9.97005 3.82584 7.50083 5.69211 5.68386C7.55837 3.86689 9.93786 2.79534 12.5973 2.79534C15.2101 2.79534 17.6829 3.8203 19.5025 5.68386C21.3221 7.54742 22.3952 9.92346 22.3952 12.579Z" fill="black"/>
</svg>
