<svg width="38" height="38" viewBox="0 0 38 38" fill="none" xmlns="http://www.w3.org/2000/svg">
<path fill-rule="evenodd" clip-rule="evenodd" d="M19.0437 0C8.62322 0 0.175781 8.44744 0.175781 18.8679C0.175781 29.2883 8.62322 37.7358 19.0437 37.7358C29.4641 37.7358 37.9116 29.2883 37.9116 18.8679C37.9116 8.44744 29.4641 0 19.0437 0ZM18.5181 15.9883L18.4785 15.3355C18.3597 13.6433 19.4023 12.0978 21.052 11.4982C21.6591 11.285 22.6885 11.2584 23.3616 11.4449C23.6256 11.5248 24.1271 11.7913 24.4834 12.0311L25.1301 12.4708L25.8428 12.2443C26.2387 12.1244 26.7666 11.9246 27.0042 11.7913C27.2285 11.6714 27.4265 11.6048 27.4265 11.6448C27.4265 11.8713 26.9382 12.644 26.5291 13.0704C25.9748 13.67 26.1331 13.7233 27.2549 13.3236C27.928 13.0971 27.9412 13.0971 27.8092 13.3502C27.73 13.4835 27.3209 13.9498 26.8854 14.3762C26.1463 15.109 26.1067 15.1889 26.1067 15.8018C26.1067 16.7478 25.658 18.7197 25.2093 19.799C24.3778 21.8242 22.5961 23.9161 20.8145 24.9687C18.3069 26.4476 14.9679 26.8207 12.1568 25.9546C11.2197 25.6615 9.60961 24.9154 9.60961 24.7821C9.60961 24.7422 10.0979 24.6889 10.6918 24.6755C11.9324 24.6489 13.173 24.3025 14.2288 23.6896L14.9415 23.2632L14.1232 22.9834C12.9618 22.5837 11.9192 21.6643 11.6553 20.7983C11.5761 20.5185 11.6025 20.5051 12.3415 20.5051L13.107 20.4918L12.4603 20.1854C11.6948 19.799 10.9954 19.1461 10.6522 18.4799C10.4015 18.0003 10.0847 16.7878 10.1771 16.6945C10.2035 16.6545 10.4807 16.7345 10.7974 16.8411C11.708 17.1742 11.8268 17.0942 11.2989 16.5346C10.3091 15.522 10.0055 14.0164 10.4807 12.5907L10.705 11.9512L11.5761 12.8173C13.3578 14.5627 15.4562 15.602 17.8582 15.9084L18.5181 15.9883Z" fill="white"/>
</svg>
