<svg width="23" height="26" viewBox="0 0 23 26" fill="none" xmlns="http://www.w3.org/2000/svg">
<path d="M17.6938 6.5731C18.9619 6.80113 20.002 7.48473 20.8149 8.62389C21.5303 9.63316 22.0181 10.9027 22.2778 12.4325C22.5059 13.8324 22.4888 15.2318 22.229 16.6317C21.8389 18.9427 21.0586 20.8797 19.8882 22.4422C18.4897 24.3304 16.7344 25.2743 14.6211 25.2743C14.1006 25.2743 13.5322 25.1117 12.9141 24.786C12.4912 24.5257 12.02 24.3954 11.4995 24.3954C10.979 24.3954 10.5083 24.5257 10.085 24.786C9.4668 25.1117 8.89844 25.2743 8.37793 25.2743C6.26465 25.2743 4.50928 24.3304 3.11084 22.4422C1.94043 20.8797 1.16016 18.9427 0.77002 16.6317C0.510254 15.2318 0.493164 13.8324 0.721191 12.4325C0.980957 10.9027 1.46875 9.63316 2.18408 8.62389C2.99707 7.48473 4.03711 6.80113 5.30518 6.5731C6.08545 6.44273 7.1582 6.55699 8.52393 6.9149C9.69434 7.24058 10.686 7.63121 11.499 8.08678C12.312 7.63121 13.3037 7.24058 14.4741 6.9149C15.8403 6.55699 16.9136 6.44273 17.6938 6.5731ZM15.0112 4.57115C14.5562 4.99449 13.9541 5.30357 13.2065 5.49889C12.686 5.66148 12.1177 5.74303 11.4995 5.74303L10.7681 5.6942C10.7031 5.23863 10.7031 4.71764 10.7681 4.1317C10.8984 2.95982 11.272 2.0648 11.8896 1.44615C12.3447 1.02281 12.9468 0.713729 13.6943 0.518417C14.2148 0.355819 14.7832 0.274276 15.4014 0.274276L16.1328 0.323104L16.1816 1.05553C16.1816 1.67418 16.1001 2.24351 15.938 2.76451C15.7432 3.51305 15.4346 4.11558 15.0112 4.57115Z" fill="black"/>
</svg>
